<?xml version="1.0" encoding="UTF-8" standalone="no"?>
<!-- Created with Inkscape (http://www.inkscape.org/) -->

<svg
   width="120mm"
   height="23mm"
   viewBox="0 0 120 23"
   version="1.1"
   id="svg5"
   sodipodi:docname="ocram.svg"
   inkscape:version="1.2.1 (9c6d41e410, 2022-07-14)"
   xmlns:inkscape="http://www.inkscape.org/namespaces/inkscape"
   xmlns:sodipodi="http://sodipodi.sourceforge.net/DTD/sodipodi-0.dtd"
   xmlns="http://www.w3.org/2000/svg"
   xmlns:svg="http://www.w3.org/2000/svg">
  <sodipodi:namedview
     id="namedview9"
     pagecolor="#ffffff"
     bordercolor="#000000"
     borderopacity="0.25"
     inkscape:showpageshadow="2"
     inkscape:pageopacity="0.0"
     inkscape:pagecheckerboard="0"
     inkscape:deskcolor="#d1d1d1"
     inkscape:document-units="mm"
     showgrid="false"
     inkscape:zoom="2.8883681"
     inkscape:cx="174.83921"
     inkscape:cy="44.142574"
     inkscape:window-width="3200"
     inkscape:window-height="1721"
     inkscape:window-x="-9"
     inkscape:window-y="-9"
     inkscape:window-maximized="1"
     inkscape:current-layer="svg5" />
  <defs
     id="defs2" />
  <g
     aria-label="ocram"
     id="text236"
     style="font-size:43.8634px;font-family:'Bauhaus 93';-inkscape-font-specification:'Bauhaus 93, ';stroke:#000000;stroke-width:0.264583"
     transform="translate(0.18320611,0.36641221)">
    <g
       id="path292">
      <path
         style="color:#000000;-inkscape-font-specification:'Bauhaus 93, ';fill:#000000;stroke:none;-inkscape-stroke:none"
         d="m 11.56933,0.13229214 q 4.540547,0 7.774616,3.27690436 3.255487,3.2554867 3.255487,7.8174515 0,4.626218 -3.298322,7.881705 -3.276904,3.255486 -7.92454,3.255486 -4.6476355,0 -7.9459575,-3.255486 -3.29832203,-3.276905 -3.29832203,-7.881705 0,-4.6904709 3.29832203,-7.8817045 Q 6.7289355,0.13229214 11.56933,0.13229214 Z M 11.355153,8.0354144 q -1.28506,0 -2.1846025,0.9423777 -0.8995423,0.9209601 -0.8995423,2.2702739 0,1.327896 0.8995423,2.270273 0.9209605,0.942378 2.1846025,0.942378 1.285061,0 2.184603,-0.942378 0.92096,-0.942377 0.92096,-2.270273 0,-1.3493138 -0.899542,-2.2702739 -0.899542,-0.9423777 -2.206021,-0.9423777 z"
         id="path313" />
      <path
         style="color:#000000;-inkscape-font-specification:'Bauhaus 93, ';fill:#000000;stroke:none;-inkscape-stroke:none"
         d="M 11.568359,0 C 8.3121649,0 5.5599406,1.0856656 3.3378906,3.25 1.115734,5.4000086 0,8.0685761 0,11.226563 c 0,3.101449 1.1170322,5.770124 3.3378906,7.976562 2.2209891,2.192145 4.9097537,3.292969 8.0390624,3.292969 3.129309,0 5.810794,-1.100608 8.017578,-3.292969 2.221177,-2.192331 3.337891,-4.860981 3.337891,-7.976562 0,-3.0727757 -1.102752,-5.717987 -3.294922,-7.9101567 C 17.259714,1.109775 14.627212,0 11.568359,0 Z m 0,0.26367188 c 2.995204,0 5.54734,1.07571102 7.681641,3.23828122 2.148475,2.1484748 3.216797,4.7147709 3.216797,7.7246099 0,3.052702 -1.081231,5.638794 -3.257813,7.787109 h -0.002 c -2.162416,2.148283 -4.762545,3.21875 -7.830078,3.21875 -3.0675321,0 -5.6767463,-1.070251 -7.8535155,-3.21875 C 1.3465376,16.850907 0.26367187,14.26484 0.26367188,11.226563 0.26367187,8.130594 1.3478358,5.5444184 3.5234375,3.4394531 5.6991458,1.3202567 8.3707009,0.26367188 11.568359,0.26367188 Z m -0.21289,7.63867182 c -0.888095,0 -1.6582246,0.3327859 -2.2792971,0.9824219 -0.6222599,0.6370757 -0.9375,1.4343414 -0.9375,2.3632814 0,0.915135 0.3144238,1.710628 0.9355469,2.361328 h 0.00195 v 0.002 c 0.635112,0.649882 1.4039842,0.982422 2.2792972,0.982422 0.889044,0 1.657877,-0.333364 2.279297,-0.984375 0.634891,-0.65024 0.958984,-1.446056 0.958984,-2.361328 0,-0.928347 -0.316029,-1.7244555 -0.9375,-2.3613282 C 13.034469,8.2353286 12.258262,7.9023437 11.355469,7.9023437 Z m 0,0.2656251 c 0.839177,0 1.531768,0.2952783 2.109375,0.9003906 l 0.002,0.00195 c 0.577128,0.5908699 0.861328,1.3075906 0.861328,2.1777346 0,0.85468 -0.290549,1.571697 -0.882812,2.177734 l -0.002,0.002 c -0.577969,0.605492 -1.263522,0.900391 -2.08789,0.900391 -0.809541,0 -1.4970099,-0.295723 -2.089844,-0.902344 -0.5773631,-0.605505 -0.8632812,-1.323006 -0.8632812,-2.177734 0,-0.870144 0.2861526,-1.5868647 0.8632812,-2.1777346 v -0.00195 C 9.8435944,8.4628678 10.531101,8.1679688 11.355469,8.1679688 Z"
         id="path315" />
    </g>
    <g
       id="path294">
      <path
         style="color:#000000;-inkscape-font-specification:'Bauhaus 93, ';fill:#000000;stroke:none;-inkscape-stroke:none"
         d="m 39.048209,12.104773 7.945957,-0.299848 q -0.342683,4.626218 -3.448246,7.603275 -3.105562,2.977057 -7.560439,2.977057 -4.711889,0 -7.967375,-3.276904 -3.234069,-3.276905 -3.234069,-8.031629 0,-4.5191292 3.276904,-7.7317805 3.276904,-3.21265136 7.860287,-3.21265136 4.005105,0 7.067833,2.52728576 3.062728,2.5272857 3.812346,6.4467203 l -8.117299,0.2998474 q -1.049466,-1.3707312 -2.655792,-1.3707312 -1.370731,0 -2.248856,0.8995424 -0.878124,0.8995424 -0.878124,2.2702732 0,1.392149 0.92096,2.334527 0.942378,0.942378 2.334526,0.942378 2.03468,0 2.891387,-2.377362 z"
         id="path319" />
      <path
         style="color:#000000;-inkscape-font-specification:'Bauhaus 93, ';fill:#000000;stroke:none;-inkscape-stroke:none"
         d="m 35.921875,0 c -3.086495,0 -5.746507,1.0866492 -7.953125,3.25 -2.206743,2.1634738 -3.316406,4.7814465 -3.316406,7.826172 0,3.199807 1.09297,5.917631 3.271484,8.125 2.192813,2.207239 4.890576,3.316406 8.0625,3.316406 2.999384,0 5.557207,-1.007101 7.650391,-3.013672 2.09333,-2.006709 3.259759,-4.578035 3.490234,-7.689453 l 0.0098,-0.146484 -8.183594,0.308594 -0.0293,0.08398 c -0.279906,0.776741 -0.652948,1.347719 -1.111328,1.724609 -0.45838,0.37689 -1.003786,0.564453 -1.65625,0.564453 -0.898247,0 -1.635015,-0.299077 -2.240234,-0.904296 -0.590317,-0.604708 -0.882813,-1.341986 -0.882813,-2.240235 0,-0.88557 0.279844,-1.6020747 0.841797,-2.1777342 0.561381,-0.5750734 1.267463,-0.859375 2.152344,-0.859375 1.033253,0 1.870943,0.4304074 2.550781,1.3183593 l 0.04297,0.054687 8.339843,-0.3085937 -0.0293,-0.1503906 C 46.426637,6.4415798 45.137843,4.2594913 43.074219,2.5566406 41.010568,0.85376784 38.619768,0 35.921875,0 Z m 0,0.26367188 c 2.642241,0 4.96244,0.83120872 6.982422,2.49804692 1.977086,1.6314417 3.197395,3.7076995 3.71289,6.21875 l -7.890625,0.2910156 c -0.711693,-0.893053 -1.618945,-1.3691406 -2.699218,-1.3691407 -0.942759,0 -1.732346,0.3151379 -2.341797,0.9394532 -0.608878,0.6237291 -0.916016,1.4212121 -0.916016,2.3632811 0,0.95727 0.322252,1.776194 0.958985,2.427735 0.651283,0.651283 1.469786,0.982421 2.427734,0.982421 0.703988,0 1.318804,-0.209437 1.824219,-0.625 0.482306,-0.396562 0.849736,-1.001378 1.136718,-1.755859 l 7.707032,-0.291016 c -0.254173,2.982832 -1.358212,5.441423 -3.369141,7.369141 -2.047561,1.962835 -4.528304,2.941406 -7.46875,2.941406 -3.110589,0 -5.727169,-1.076319 -7.875,-3.238281 -2.133573,-2.161833 -3.195312,-4.799634 -3.195312,-7.939453 0,-2.9807743 1.075823,-5.5166619 3.238281,-7.6367189 2.162583,-2.12018 4.742902,-3.17578122 7.767578,-3.17578122 z"
         id="path321" />
    </g>
    <g
       id="path296">
      <path
         style="color:#000000;-inkscape-font-specification:'Bauhaus 93, ';fill:#000000;stroke:none;-inkscape-stroke:none"
         d="M 62.200716,0.36788657 V 8.9349568 q -0.835289,-0.4711889 -1.520654,-0.4711889 -2.184603,0 -2.184603,3.3411571 V 21.935486 H 50.485248 V 10.262853 q 0,-4.6262182 2.527286,-7.3676807 2.527285,-2.76288016 6.746567,-2.76288016 0.942378,0 2.441615,0.23559443 z"
         id="path325" />
      <path
         style="color:#000000;-inkscape-font-specification:'Bauhaus 93, ';fill:#000000;stroke:none;-inkscape-stroke:none"
         d="m 59.759766,0 c -2.840673,0 -5.134351,0.93710199 -6.84375,2.8046875 -1.709992,1.8549058 -2.5625,4.3507519 -2.5625,7.4589845 v 11.804687 h 8.273437 V 11.804688 c 0,-1.099302 0.183397,-1.9105453 0.525391,-2.4335942 0.341993,-0.523049 0.832865,-0.7753907 1.527343,-0.7753907 0.426593,0 0.911706,0.1485599 1.455079,0.4550782 l 0.197265,0.1113281 V 0.25390625 L 62.220703,0.23632813 C 61.217014,0.07860545 60.399041,0 59.759766,0 Z m 0,0.26367188 c 0.588808,0 1.37554,0.0803754 2.308593,0.22265625 V 8.7597656 C 61.578123,8.5119944 61.106327,8.3320313 60.679687,8.3320313 c -0.761921,0 -1.36184,0.3038623 -1.748046,0.8945312 -0.386207,0.5906689 -0.56836,1.4499905 -0.56836,2.5781255 v 9.998046 H 50.617187 V 10.263672 c 0,-3.0600524 0.832468,-5.4789231 2.492188,-7.279297 1.660109,-1.814865 3.866415,-2.72070312 6.650391,-2.72070312 z"
         id="path327" />
    </g>
    <g
       id="path298">
      <path
         style="color:#000000;-inkscape-font-specification:'Bauhaus 93, ';fill:#000000;stroke:none;-inkscape-stroke:none"
         d="m 76.422051,13.925275 v 8.288641 q -0.985213,0.171341 -1.799084,0.171341 -4.818977,0 -8.031629,-3.169816 -3.212651,-3.169816 -3.212651,-7.945958 0,-4.6476352 3.234069,-7.8817042 3.255487,-3.23406898 7.903122,-3.23406898 5.183078,0 8.160135,3.04130988 2.998474,3.0198923 2.998474,8.2672233 v 10.473243 h -8.01021 V 12.04052 q 0,-1.691997 -0.83529,-2.6986274 -0.813872,-1.0066307 -2.20602,-1.0066307 -1.263643,0 -2.184603,0.92096 -0.92096,0.9209601 -0.92096,2.1846031 0,1.327896 0.835289,2.184603 0.835289,0.856707 2.12035,0.856707 1.049466,0 1.949008,-0.55686 z"
         id="path331" />
      <path
         style="color:#000000;-inkscape-font-specification:'Bauhaus 93, ';fill:#000000;stroke:none;-inkscape-stroke:none"
         d="m 74.515625,0.02148438 c -3.129105,0 -5.803441,1.09325682 -7.996094,3.27148442 v 0.00195 c -2.178449,2.178449 -3.273437,4.8455039 -3.273437,7.9746092 0,3.213753 1.086541,5.904476 3.251953,8.041016 2.165306,2.136435 4.883346,3.207031 8.125,3.207031 0.551864,0 1.159399,-0.05855 1.822265,-0.173828 l 0.109375,-0.01953 V 13.6875 l -0.203125,0.125 c -0.580117,0.359121 -1.202661,0.537109 -1.878906,0.537109 -0.827308,0 -1.492204,-0.269548 -2.02539,-0.816406 -0.533009,-0.546676 -0.796875,-1.234272 -0.796875,-2.091797 0,-0.810289 0.288278,-1.4992157 0.880859,-2.0917966 0.592581,-0.5925809 1.281508,-0.8828125 2.091797,-0.8828125 0.896212,0 1.584121,0.3165756 2.103515,0.9589844 0.5336,0.6430557 0.804688,1.5090067 0.804688,2.6152347 v 10.027343 h 8.275391 V 11.462891 c 0,-3.5234159 -1.011136,-6.3208832 -3.03711,-8.3613285 -2.01145,-2.0541711 -4.77332,-3.08007812 -8.253906,-3.08007812 z m 0,0.26367187 c 3.429507,0 6.10855,1.00184075 8.066406,3.00195315 v 0.00195 c 1.971988,1.9860738 2.960938,4.7008093 2.960938,8.1738286 v 10.339843 h -7.746094 v -9.761718 c 0,-1.149767 -0.285115,-2.0840865 -0.865234,-2.7832036 C 76.365874,8.5580483 75.58303,8.203125 74.623047,8.203125 c -0.874567,0 -1.641979,0.3236198 -2.277344,0.9589844 -0.635364,0.6353646 -0.960937,1.4047306 -0.960937,2.2792966 0,0.913002 0.292338,1.681745 0.873046,2.277344 0.580532,0.595417 1.32874,0.896484 2.214844,0.896484 0.650276,0 1.249224,-0.209186 1.816406,-0.519531 v 7.998047 c -0.603935,0.09963 -1.165553,0.160156 -1.666015,0.160156 -3.183642,0 -5.821228,-1.04283 -7.939453,-3.132812 -2.118119,-2.089878 -3.171875,-4.697133 -3.171875,-7.851563 0,-3.067735 1.061674,-5.6554236 3.195312,-7.7890622 2.147596,-2.1325096 4.741828,-3.19531255 7.808594,-3.19531255 z"
         id="path333" />
    </g>
    <g
       id="path300">
      <path
         style="color:#000000;-inkscape-font-specification:'Bauhaus 93, ';fill:#000000;stroke:none;-inkscape-stroke:none"
         d="m 119.64292,21.935486 h -8.01021 v -11.52271 q 0,-1.3278955 -0.27843,-1.8419197 -0.27843,-0.5140242 -1.00663,-0.5140242 -1.34932,0 -1.34932,2.3773619 v 11.501292 h -8.01021 v -11.52271 q 0,-1.3278955 -0.29984,-1.8419197 -0.27843,-0.5140242 -1.006634,-0.5140242 -1.327896,0 -1.327896,2.3773619 V 21.935486 H 90.34354 V 8.7850331 q 0,-3.5981695 2.420197,-6.1040376 2.420197,-2.52728568 5.868443,-2.52728568 3.55533,0 6.38247,2.99847458 3.1484,-2.99847458 6.29679,-2.99847458 4.00511,0 6.42531,2.91280388 1.90617,2.2702736 1.90617,6.6180617 z"
         id="path337" />
      <path
         style="color:#000000;-inkscape-font-specification:'Bauhaus 93, ';fill:#000000;stroke:none;-inkscape-stroke:none"
         d="m 98.632812,0.02148438 c -2.331147,0 -4.329673,0.86083641 -5.964843,2.56835942 -1.635444,1.6933358 -2.457031,3.7668746 -2.457032,6.1953125 V 22.068359 h 8.275391 V 10.433594 c 0,-0.780138 0.111447,-1.3553041 0.314453,-1.7187502 0.203006,-0.3634462 0.477702,-0.5253907 0.88086,-0.5253907 0.454339,0 0.728009,0.1450997 0.890629,0.4453125 l 0.002,0.00195 c 0.17491,0.2998559 0.28125,0.900085 0.28125,1.7753904 v 11.65625 h 8.27539 V 10.433594 c 0,-0.7799393 0.11411,-1.353497 0.32031,-1.7167971 0.2062,-0.3633001 0.48556,-0.5273438 0.89649,-0.5273438 0.45434,0 0.72801,0.1450995 0.89062,0.4453125 0.1629,0.3007334 0.26172,0.9013272 0.26172,1.7773434 v 11.65625 h 8.27539 V 21.935547 9.6855469 c 0,-2.9178557 -0.63998,-5.1577607 -1.9375,-6.703125 -1.63639,-1.9694567 -3.8252,-2.96093753 -6.52734,-2.96093752 -2.10949,0 -4.20865,1.01290682 -6.29297,2.96875002 -1.88243,-1.9577663 -4.01442,-2.96875002 -6.384768,-2.96875002 z m 0,0.26367187 c 2.333028,0 4.419388,0.97818965 6.285158,2.95703125 l 0.0918,0.097656 0.0957,-0.091797 c 2.08298,-1.9837933 4.14815,-2.96289065 6.20508,-2.96289065 2.638,0 4.73367,0.95095645 6.32422,2.86523435 v 0.00195 c 1.24403,1.4816641 1.875,3.6540138 1.875,6.5332031 V 21.802734 h -7.74414 V 10.412109 c 0,-0.8945086 -0.0866,-1.519665 -0.29493,-1.9042965 -0.20862,-0.3851519 -0.60645,-0.5839844 -1.12304,-0.5839844 -0.48862,0 -0.88338,0.2329563 -1.12696,0.6621094 -0.24357,0.4291531 -0.35547,1.042689 -0.35547,1.8476565 v 11.36914 h -7.74414 V 10.412109 c 0,-0.8934366 -0.0944,-1.5185919 -0.31836,-1.9042965 -0.20885,-0.3841136 -0.6052,-0.5839844 -1.121089,-0.5839844 -0.482106,0 -0.871703,0.2331024 -1.111329,0.6621094 -0.239625,0.429007 -0.349609,1.0428877 -0.349609,1.8476565 v 11.36914 H 90.476562 V 8.7851563 c 0,-2.3691168 0.791331,-4.3639005 2.382813,-6.0117188 1.591756,-1.6621879 3.506929,-2.48828125 5.773437,-2.48828125 z"
         id="path339" />
    </g>
  </g>
  <g
     id="text1574"
     style="font-size:43.8634px;font-family:'Bauhaus 93';-inkscape-font-specification:'Bauhaus 93, ';stroke:#000000;stroke-width:0.264583" />
</svg>
